<?xml version="1.0" encoding="UTF-8"?>
<svg xmlns="http://www.w3.org/2000/svg" xmlns:xlink="http://www.w3.org/1999/xlink" width="2501" height="2501" viewBox="0 0 2501 2501">
<path fill-rule="evenodd" fill="rgb(39.988708%, 39.988708%, 80.076599%)" fill-opacity="1" d="M 948.636719 827.960938 L 1553.058594 827.960938 C 1593.550781 827.960938 1629.511719 848.300781 1651.269531 879.25 L 1676.648438 853.859375 C 1648.179688 816.601562 1603.308594 792.429688 1553.050781 792.429688 L 948.628906 792.429688 C 863.089844 792.429688 793.109375 862.410156 793.109375 947.949219 L 793.109375 1552.371094 C 793.109375 1637.910156 863.089844 1707.890625 948.628906 1707.890625 L 1553.050781 1707.890625 C 1638.589844 1707.890625 1708.570312 1637.910156 1708.570312 1552.371094 L 1708.570312 1199 L 1673.039062 1234.53125 L 1673.039062 1552.363281 C 1673.039062 1618.351562 1619.050781 1672.335938 1553.058594 1672.335938 L 948.636719 1672.335938 C 882.648438 1672.335938 828.664062 1618.351562 828.664062 1552.363281 L 828.664062 947.941406 C 828.664062 881.949219 882.648438 827.960938 948.636719 827.960938 "/>
<path fill-rule="evenodd" fill="rgb(39.988708%, 39.988708%, 80.076599%)" fill-opacity="1" d="M 1021.578125 1100.671875 L 1389.101562 1468.191406 L 1250.839844 1606.460938 L 883.3125 1238.929688 L 1021.578125 1100.671875 "/>
<path fill-rule="evenodd" fill="rgb(39.988708%, 39.988708%, 80.076599%)" fill-opacity="1" d="M 1250.839844 1606.460938 L 1112.589844 1468.191406 L 1876.171875 704.609375 L 2014.441406 842.871094 L 1250.839844 1606.460938 "/>
</svg>
